<?xml version="1.0" encoding="UTF-8" standalone="no"?>
<!DOCTYPE svg PUBLIC "-//W3C//DTD SVG 1.1//EN" "http://www.w3.org/Graphics/SVG/1.1/DTD/svg11.dtd">
<svg width="100%" height="100%" viewBox="0 0 766 332" version="1.1" xmlns="http://www.w3.org/2000/svg" xmlns:xlink="http://www.w3.org/1999/xlink" xml:space="preserve" xmlns:serif="http://www.serif.com/" style="fill-rule:evenodd;clip-rule:evenodd;stroke-linejoin:round;stroke-miterlimit:2;">
    <g transform="matrix(24.4855,0,0,24.4855,-4814.4,-4678.21)">
        <g transform="matrix(0.0442111,0,0,0.0628792,152.896,190.999)">
            <path d="M1695.71,44.173C1695.71,20.379 1668.24,1.061 1634.4,1.061L1050.93,1.061C1017.29,1.061 989.98,20.265 989.98,43.919L989.98,216.617L1634.4,216.617C1668.24,216.617 1695.71,197.3 1695.71,173.506L1695.71,44.173ZM1679.08,44.173L1679.08,173.506C1679.08,190.847 1659.06,204.926 1634.4,204.926C1634.4,204.926 1107.6,204.926 1006.61,204.926C1006.61,166.104 1006.61,43.919 1006.61,43.919C1006.61,26.718 1026.47,12.753 1050.93,12.753L1634.4,12.753C1659.06,12.753 1679.08,26.831 1679.08,44.173Z" style="fill:rgb(255,128,0);"/>
        </g>
        <g transform="matrix(0.0493815,0,0,0.0408405,139.581,191.174)">
            <path d="M1282.51,257.389C1277.27,261.805 1270.92,264.013 1263.46,264.013L1253.69,264.013C1239.72,264.013 1229.48,260.413 1222.97,253.213C1216.45,246.013 1213.2,234.253 1213.2,217.933L1213.2,166.093C1213.2,149.965 1216.5,138.253 1223.09,130.957C1229.67,123.661 1239.88,120.013 1253.69,120.013L1281.32,120.013L1281.32,62.413L1301.57,62.413L1301.57,264.013L1282.51,264.013L1282.51,257.389ZM1265.84,242.413C1271.08,242.413 1274.97,240.733 1277.51,237.373C1280.05,234.013 1281.32,230.413 1281.32,226.573L1281.32,141.613L1251.31,141.613C1245.43,141.613 1240.99,143.245 1237.97,146.509C1234.95,149.773 1233.45,154.381 1233.45,160.333L1233.45,223.693C1233.45,229.645 1234.95,234.253 1237.97,237.517C1240.99,240.781 1245.43,242.413 1251.31,242.413L1265.84,242.413Z" style="fill-rule:nonzero;"/>
            <path d="M1399.7,264.013C1397.64,264.013 1395.37,263.245 1392.91,261.709C1390.45,260.173 1388.35,258.061 1386.6,255.373C1382.95,261.133 1378.11,264.013 1372.07,264.013L1350.87,264.013C1338.8,264.013 1330.03,261.085 1324.55,255.229C1319.08,249.373 1316.34,239.341 1316.34,225.133L1316.34,219.373C1316.34,189.613 1327.93,174.733 1351.11,174.733L1380.65,174.733L1380.65,160.333C1380.65,154.381 1379.14,149.773 1376.12,146.509C1373.1,143.245 1368.66,141.613 1362.78,141.613L1325.86,141.613L1325.86,120.013L1360.4,120.013C1374.21,120.013 1384.42,123.661 1391.01,130.957C1397.6,138.253 1400.89,149.965 1400.89,166.093L1400.89,235.213C1400.89,238.093 1401.81,240.253 1403.63,241.693C1405.46,243.133 1408.51,243.853 1412.8,243.853L1412.8,264.013L1399.7,264.013ZM1369.69,242.413C1374.45,242.413 1377.47,241.069 1378.74,238.381C1380.01,235.693 1380.65,232.237 1380.65,228.013L1380.65,196.333L1350.87,196.333C1346.74,196.333 1343.33,197.965 1340.63,201.229C1337.93,204.493 1336.58,208.621 1336.58,213.613L1336.58,228.013C1336.58,233.005 1337.53,236.653 1339.44,238.957C1341.35,241.261 1344.36,242.413 1348.49,242.413L1369.69,242.413Z" style="fill-rule:nonzero;"/>
            <path d="M1480.68,264.013C1472.59,264.013 1466.39,260.845 1462.11,254.509C1457.82,248.173 1455.67,239.821 1455.67,229.453L1455.67,141.613L1433.05,141.613L1433.05,120.013L1455.67,120.013L1455.67,85.453L1475.92,85.453L1475.92,120.013L1510.7,120.013L1510.7,141.613L1475.92,141.613L1475.92,230.893C1475.92,235.117 1476.79,238.093 1478.54,239.821C1480.29,241.549 1482.99,242.413 1486.64,242.413L1510.7,242.413L1510.7,264.013L1480.68,264.013Z" style="fill:rgb(255,128,0);fill-rule:nonzero;"/>
            <path d="M1587.87,264.013C1579.77,264.013 1573.58,260.845 1569.29,254.509C1565,248.173 1562.86,239.821 1562.86,229.453L1562.86,141.613L1540.23,141.613L1540.23,120.013L1562.86,120.013L1562.86,85.453L1583.11,85.453L1583.11,120.013L1617.88,120.013L1617.88,141.613L1583.11,141.613L1583.11,230.893C1583.11,235.117 1583.98,238.093 1585.73,239.821C1587.47,241.549 1590.17,242.413 1593.82,242.413L1617.88,242.413L1617.88,264.013L1587.87,264.013Z" style="fill:rgb(255,128,0);fill-rule:nonzero;"/>
            <path d="M1721.25,264.013C1719.19,264.013 1716.93,263.245 1714.47,261.709C1712.01,260.173 1709.9,258.061 1708.15,255.373C1704.5,261.133 1699.66,264.013 1693.62,264.013L1672.43,264.013C1660.36,264.013 1651.58,261.085 1646.11,255.229C1640.63,249.373 1637.89,239.341 1637.89,225.133L1637.89,219.373C1637.89,189.613 1649.48,174.733 1672.66,174.733L1702.2,174.733L1702.2,160.333C1702.2,154.381 1700.69,149.773 1697.67,146.509C1694.66,143.245 1690.21,141.613 1684.34,141.613L1647.42,141.613L1647.42,120.013L1681.95,120.013C1695.77,120.013 1705.97,123.661 1712.56,130.957C1719.15,138.253 1722.44,149.965 1722.44,166.093L1722.44,235.213C1722.44,238.093 1723.36,240.253 1725.18,241.693C1727.01,243.133 1730.07,243.853 1734.35,243.853L1734.35,264.013L1721.25,264.013ZM1691.24,242.413C1696.01,242.413 1699.02,241.069 1700.29,238.381C1701.56,235.693 1702.2,232.237 1702.2,228.013L1702.2,196.333L1672.43,196.333C1668.3,196.333 1664.88,197.965 1662.18,201.229C1659.48,204.493 1658.13,208.621 1658.13,213.613L1658.13,228.013C1658.13,233.005 1659.09,236.653 1660.99,238.957C1662.9,241.261 1665.91,242.413 1670.04,242.413L1691.24,242.413Z" style="fill-rule:nonzero;"/>
        </g>
    </g>
</svg>
